<svg id="ebyv8jb825ei1" xmlns="http://www.w3.org/2000/svg" xmlns:xlink="http://www.w3.org/1999/xlink" viewBox="0 0 1920 1080" shape-rendering="geometricPrecision" text-rendering="geometricPrecision">
	<style>
		<![CDATA[#ebyv8jb825ei3_to {animation: ebyv8jb825ei3_to__to 3000ms linear infinite normal forwards}@keyframes ebyv8jb825ei3_to__to { 0% {transform: translate(-419.678701px,540.269993px)} 6.666667% {transform: translate(-419.678701px,540.269993px)} 66.666667% {transform: translate(960px,540px)} 100% {transform: translate(960px,540px)} }#ebyv8jb825ei3 {animation: ebyv8jb825ei3_c_o 3000ms linear infinite normal forwards}@keyframes ebyv8jb825ei3_c_o { 0% {opacity: 1} 6.666667% {opacity: 1} 93.333333% {opacity: 0} 100% {opacity: 0} }#ebyv8jb825ei7_to {animation: ebyv8jb825ei7_to__to 3000ms linear infinite normal forwards}@keyframes ebyv8jb825ei7_to__to { 0% {transform: translate(-419.678701px,540.269993px)} 6.666667% {transform: translate(-419.678701px,540.269993px)} 66.666667% {transform: translate(960px,540px)} 100% {transform: translate(960px,540px)} }#ebyv8jb825ei8 {animation: ebyv8jb825ei8_c_o 3000ms linear infinite normal forwards}@keyframes ebyv8jb825ei8_c_o { 0% {opacity: 0} 6.666667% {opacity: 0} 66.666667% {opacity: 0.050000} 100% {opacity: 1} }#ebyv8jb825ei9 {animation: ebyv8jb825ei9_c_o 3000ms linear infinite normal forwards}@keyframes ebyv8jb825ei9_c_o { 0% {opacity: 0} 6.666667% {opacity: 0} 80% {opacity: 0} 100% {opacity: 1} }#ebyv8jb825ei10 {animation: ebyv8jb825ei10_c_o 3000ms linear infinite normal forwards}@keyframes ebyv8jb825ei10_c_o { 0% {opacity: 0} 6.666667% {opacity: 0} 73.333333% {opacity: 0} 100% {opacity: 1} }#ebyv8jb825ei11_to {animation: ebyv8jb825ei11_to__to 3000ms linear infinite normal forwards}@keyframes ebyv8jb825ei11_to__to { 0% {transform: translate(2000px,484.730000px)} 6.666667% {transform: translate(2000px,484.730000px)} 66.666667% {transform: translate(852.070000px,484.730000px)} 100% {transform: translate(852.070000px,484.730000px)} }#ebyv8jb825ei11 {animation: ebyv8jb825ei11_c_o 3000ms linear infinite normal forwards}@keyframes ebyv8jb825ei11_c_o { 0% {opacity: 1} 80% {opacity: 1} 100% {opacity: 0} }]]>
	</style>
	<defs>
		<linearGradient id="ebyv8jb825ei2-fill" x1="0" y1="540" x2="1920" y2="540" spreadMethod="pad" gradientUnits="userSpaceOnUse">
			<stop id="ebyv8jb825ei2-fill-0" offset="0%" stop-color="rgba(189,204,212,0)" />
			<stop id="ebyv8jb825ei2-fill-1" offset="3%" stop-color="rgba(189,204,212,0.06)" />
			<stop id="ebyv8jb825ei2-fill-2" offset="15%" stop-color="rgba(189,204,212,0.3)" />
			<stop id="ebyv8jb825ei2-fill-3" offset="26%" stop-color="rgba(189,204,212,0.49)" />
			<stop id="ebyv8jb825ei2-fill-4" offset="36%" stop-color="rgba(189,204,212,0.63)" />
			<stop id="ebyv8jb825ei2-fill-5" offset="45%" stop-color="rgba(189,204,212,0.71)" />
			<stop id="ebyv8jb825ei2-fill-6" offset="51%" stop-color="rgba(189,204,212,0.74)" />
			<stop id="ebyv8jb825ei2-fill-7" offset="58%" stop-color="rgba(189,204,212,0.72)" />
			<stop id="ebyv8jb825ei2-fill-8" offset="66%" stop-color="rgba(189,204,212,0.65)" />
			<stop id="ebyv8jb825ei2-fill-9" offset="75%" stop-color="rgba(189,204,212,0.53)" />
			<stop id="ebyv8jb825ei2-fill-10" offset="84%" stop-color="rgba(189,204,212,0.37)" />
			<stop id="ebyv8jb825ei2-fill-11" offset="93%" stop-color="rgba(189,204,212,0.16)" />
			<stop id="ebyv8jb825ei2-fill-12" offset="100%" stop-color="rgba(189,204,212,0)" />
		</linearGradient>
		<linearGradient id="ebyv8jb825ei8-fill" x1="1058.440000" y1="578.380000" x2="1264.680000" y2="578.380000" spreadMethod="pad" gradientUnits="userSpaceOnUse">
			<stop id="ebyv8jb825ei8-fill-0" offset="8%" stop-color="rgb(0,159,253)" />
			<stop id="ebyv8jb825ei8-fill-1" offset="20%" stop-color="rgb(2,153,246)" />
			<stop id="ebyv8jb825ei8-fill-2" offset="38%" stop-color="rgb(8,137,226)" />
			<stop id="ebyv8jb825ei8-fill-3" offset="59%" stop-color="rgb(18,110,195)" />
			<stop id="ebyv8jb825ei8-fill-4" offset="83%" stop-color="rgb(31,73,150)" />
			<stop id="ebyv8jb825ei8-fill-5" offset="100%" stop-color="rgb(42,42,114)" />
		</linearGradient>
		<linearGradient id="ebyv8jb825ei9-fill" x1="866.710000" y1="578.380000" x2="1071.800000" y2="578.380000" spreadMethod="pad" gradientUnits="userSpaceOnUse">
			<stop id="ebyv8jb825ei9-fill-0" offset="0%" stop-color="rgb(42,42,114)" />
			<stop id="ebyv8jb825ei9-fill-1" offset="15%" stop-color="rgb(37,56,131)" />
			<stop id="ebyv8jb825ei9-fill-2" offset="45%" stop-color="rgb(24,92,174)" />
			<stop id="ebyv8jb825ei9-fill-3" offset="87%" stop-color="rgb(3,150,243)" />
			<stop id="ebyv8jb825ei9-fill-4" offset="92%" stop-color="rgb(0,159,253)" />
		</linearGradient>
		<linearGradient id="ebyv8jb825ei10-fill" x1="656.070000" y1="540.250000" x2="871.460000" y2="540.250000" spreadMethod="pad" gradientUnits="userSpaceOnUse">
			<stop id="ebyv8jb825ei10-fill-0" offset="8%" stop-color="rgb(0,159,253)" />
			<stop id="ebyv8jb825ei10-fill-1" offset="48%" stop-color="rgb(19,106,190)" />
			<stop id="ebyv8jb825ei10-fill-2" offset="100%" stop-color="rgb(42,42,114)" />
		</linearGradient>
	</defs>
	<rect id="ebyv8jb825ei2" width="1920" height="1080" rx="0" ry="0" fill="url(#ebyv8jb825ei2-fill)" stroke="none" stroke-width="1" />
	<g id="ebyv8jb825ei3_to" transform="translate(-419.678701,540.269993)">
		<g id="ebyv8jb825ei3" transform="translate(-960.415009,-540.270004)">
			<path id="ebyv8jb825ei4" d="M1203.430000,490.480000L1088.430000,490.480000C1076.190000,498.230000,1065.780000,509.990000,1058.490000,524.480000L1203.140000,524.480000C1222.460000,524.480000,1230.140000,535.140000,1230.140000,548.780000L1230.140000,562.110000L1146.570000,562.110000C1103.290000,562.110000,1087.300000,580.750000,1087.300000,612.710000C1087.300000,646.010000,1104.620000,666.310000,1146.230000,666.310000L1228.470000,666.310000C1258.110000,666.310000,1264.760000,656.310000,1264.760000,631.020000L1264.760000,548.410000C1264.680000,515.120000,1247.370000,490.480000,1203.430000,490.480000ZM1230.060000,623C1230.060000,629.320000,1227.390000,632,1220.400000,632L1146.490000,632C1128.850000,632,1121.850000,623.680000,1121.850000,610.690000C1121.850000,597.700000,1128.510000,590.050000,1147.160000,590.050000L1230.060000,590.050000Z" fill="none" fill-opacity="0" stroke="rgb(12,12,12)" stroke-width="4" />
			<path id="ebyv8jb825ei5" d="M945.060000,524.440000L1046,524.440000C1050,516.820000,1058.470000,502.570000,1071.800000,490.440000L944.730000,490.440000C903.730000,490.440000,887.460000,510.090000,887.460000,541.710000C887.460000,568.710000,899.460000,592.980000,948.060000,592.980000L989.680000,592.980000C1007.320000,592.980000,1014.680000,598.650000,1014.680000,612.630000C1014.680000,626.280000,1008.020000,631.940000,991.680000,631.940000L885.820000,631.940000C876.340000,640.940000,869.880000,652.850000,866.710000,666.230000L991.710000,666.230000C1033,666.230000,1049.320000,644.230000,1049.320000,612.970000C1049.320000,585.660000,1036.990000,563.350000,988.380000,563.350000L947.060000,563.350000C927.420000,563.350000,922.060000,556.700000,922.060000,544.350000C922.090000,531.100000,928.740000,524.440000,945.060000,524.440000Z" fill="none" fill-opacity="0" stroke="rgb(12,12,12)" stroke-width="4" />
			<path id="ebyv8jb825ei6" d="M838.520000,632C843.140000,621,845.520000,607.400000,845.520000,591L845.520000,414.230000L809.890000,414.230000L809.890000,490.480000L732.320000,490.480000C685.320000,490.480000,656.070000,519.110000,656.070000,578.380000C656.070000,637.650000,685.370000,666.270000,732.320000,666.270000L856.430000,666.270000C858.810000,654.770000,863.310000,642.650000,871.430000,631.980000ZM809.890000,589.380000C809.890000,619.380000,798.890000,632,770.600000,632L735.600000,632C705.300000,632,691.650000,616.350000,691.650000,578.400000C691.650000,540.450000,705.300000,524.460000,735.600000,524.460000L809.840000,524.460000Z" fill="none" fill-opacity="0" stroke="rgb(12,12,12)" stroke-width="3" />
		</g>
	</g>
	<g id="ebyv8jb825ei7_to" transform="translate(-419.678701,540.269993)">
		<g id="ebyv8jb825ei7" transform="translate(-960.415009,-540.270004)">
			<path id="ebyv8jb825ei8" d="M1203.430000,490.480000L1088.430000,490.480000C1076.190000,498.230000,1065.780000,509.990000,1058.490000,524.480000L1203.140000,524.480000C1222.460000,524.480000,1230.140000,535.140000,1230.140000,548.780000L1230.140000,562.110000L1146.570000,562.110000C1103.290000,562.110000,1087.300000,580.750000,1087.300000,612.710000C1087.300000,646.010000,1104.620000,666.310000,1146.230000,666.310000L1228.470000,666.310000C1258.110000,666.310000,1264.760000,656.310000,1264.760000,631.020000L1264.760000,548.410000C1264.680000,515.120000,1247.370000,490.480000,1203.430000,490.480000ZM1230.060000,623C1230.060000,629.320000,1227.390000,632,1220.400000,632L1146.490000,632C1128.850000,632,1121.850000,623.680000,1121.850000,610.690000C1121.850000,597.700000,1128.510000,590.050000,1147.160000,590.050000L1230.060000,590.050000Z" opacity="0" fill="url(#ebyv8jb825ei8-fill)" stroke="none" stroke-width="4" stroke-opacity="0" />
			<path id="ebyv8jb825ei9" d="M945.060000,524.440000L1046,524.440000C1050,516.820000,1058.470000,502.570000,1071.800000,490.440000L944.730000,490.440000C903.730000,490.440000,887.460000,510.090000,887.460000,541.710000C887.460000,568.710000,899.460000,592.980000,948.060000,592.980000L989.680000,592.980000C1007.320000,592.980000,1014.680000,598.650000,1014.680000,612.630000C1014.680000,626.280000,1008.020000,631.940000,991.680000,631.940000L885.820000,631.940000C876.340000,640.940000,869.880000,652.850000,866.710000,666.230000L991.710000,666.230000C1033,666.230000,1049.320000,644.230000,1049.320000,612.970000C1049.320000,585.660000,1036.990000,563.350000,988.380000,563.350000L947.060000,563.350000C927.420000,563.350000,922.060000,556.700000,922.060000,544.350000C922.090000,531.100000,928.740000,524.440000,945.060000,524.440000Z" opacity="0" fill="url(#ebyv8jb825ei9-fill)" stroke="none" stroke-width="4" stroke-opacity="0" />
			<path id="ebyv8jb825ei10" d="M838.520000,632C843.140000,621,845.520000,607.400000,845.520000,591L845.520000,414.230000L809.890000,414.230000L809.890000,490.480000L732.320000,490.480000C685.320000,490.480000,656.070000,519.110000,656.070000,578.380000C656.070000,637.650000,685.370000,666.270000,732.320000,666.270000L856.430000,666.270000C858.810000,654.770000,863.310000,642.650000,871.430000,631.980000ZM809.890000,589.380000C809.890000,619.380000,798.890000,632,770.600000,632L735.600000,632C705.300000,632,691.650000,616.350000,691.650000,578.400000C691.650000,540.450000,705.300000,524.460000,735.600000,524.460000L809.840000,524.460000Z" opacity="0" fill="url(#ebyv8jb825ei10-fill)" stroke="none" stroke-width="3" stroke-opacity="0" />
		</g>
	</g>
	<g id="ebyv8jb825ei11_to" transform="translate(2000,484.730000)">
		<text id="ebyv8jb825ei11" dx="0" dy="0" font-family="Rockwell-Regular, Rockwell" font-size="39.850000" transform="translate(0,0.468750)" fill="rgb(102,102,102)" stroke="none" stroke-width="1">
			<![CDATA[DEVON ANDERSON]]>
		</text>
	</g>
</svg>
