<!-- <svg width="180" height="70" id="Layer_1" data-name="Layer 1" xmlns="http://www.w3.org/2000/svg" xmlns:xlink="http://www.w3.org/1999/xlink" viewBox="0 0 95.28 47.89">
  <defs>
    <style>
      .cls-1{fill:none;}.cls-2{clip-path:url(#clip-path);}.cls-3{fill:gray;}.cls-4{fill:#4d4d4d;}
    </style>
    <clipPath id="clip-path" transform="translate(-34.72 -0.62)">
      <rect class="cls-1" x="34.72" y="0.62" width="95.28" height="40.43"/>
      </clipPath>
  </defs>
  <g id="Vector_Smart_Object" data-name="Vector Smart Object">
    <g class="cls-2">
    <g class="cls-2">
      <path d="M129.47,18.46a7.53,7.53,0,0,0-1.74-3,8.18,8.18,0,0,0-3.07-2,13,13,0,0,0-4.49-.69H79.85q-4.92,0-7,2.21a8.33,8.33,0,0,0-2.14,6,11.43,11.43,0,0,0,.43,3.1,6.27,6.27,0,0,0,1.52,2.64,7.39,7.39,0,0,0,3,1.82,14.36,14.36,0,0,0,4.8.67h6.68a5.1,5.1,0,0,1,3.07.72,2.89,2.89,0,0,1,.94,2.43,3,3,0,0,1-.86,2.38,4.39,4.39,0,0,1-2.83.72l-23.31-.12a17.5,17.5,0,0,0,1-6.45V.62H59.4V12.85H47A11.73,11.73,0,0,0,38,16.32Q34.73,19.78,34.72,27T38,37.58A11.73,11.73,0,0,0,47,41.05h7.8a14.43,14.43,0,0,0,2.13-.15l30.5.15a12.53,12.53,0,0,0,4.22-.64,7.65,7.65,0,0,0,2.88-1.77A6.54,6.54,0,0,0,96.11,36a11.15,11.15,0,0,0,.51-3.45,10.75,10.75,0,0,0-.43-3.1,5.73,5.73,0,0,0-1.52-2.51,7.73,7.73,0,0,0-3-1.7,15.24,15.24,0,0,0-4.83-.65H80.22a4.73,4.73,0,0,1-3.17-.77,2.93,2.93,0,0,1-.83-2.27,3.12,3.12,0,0,1,.85-2.4,4.06,4.06,0,0,1,2.83-.8h40.22a4.26,4.26,0,0,1,3.34,1.12,4,4,0,0,1,1,2.77v2.14H111a15.31,15.31,0,0,0-4.43.56,7.66,7.66,0,0,0-2.94,1.6A6.08,6.08,0,0,0,102,29a10.6,10.6,0,0,0-.51,3.42,8.68,8.68,0,0,0,2.22,6.3Q106,41,111,41.05h13.19a11.26,11.26,0,0,0,2.91-.32,4,4,0,0,0,1.79-1,3.55,3.55,0,0,0,.88-1.74,12.08,12.08,0,0,0,.24-2.61V22.14a12.45,12.45,0,0,0-.53-3.68M53.09,35.55h-5.6q-3.69,0-5.37-2T40.44,27q0-4.59,1.68-6.62c1.12-1.36,2.91-2,5.37-2H59.4V28.71c0,2.42-.49,4.17-1.45,5.23A4.92,4.92,0,0,1,55,35.39l-1.93.21m71.34-1.5c0,1-.52,1.45-1.55,1.45H111a4.08,4.08,0,0,1-3-.94,3.38,3.38,0,0,1-.91-2.48A3.22,3.22,0,0,1,108,29.7a4.44,4.44,0,0,1,3.15-.88h13.3Z" transform="translate(-34.72 -0.62)"/>
    </g>
    </g>
  </g>
  <path class="cls-3" d="M47.63,45.15a3,3,0,0,1-1,2.44,4.47,4.47,0,0,1-2.91.81H41.38v-.78h.85V42.88h-.85v-.79h2.4a4.73,4.73,0,0,1,2.9.73A2.77,2.77,0,0,1,47.63,45.15Zm-1,0a2.68,2.68,0,0,0-.28-1.31,1.73,1.73,0,0,0-.9-.75,4.3,4.3,0,0,0-1.62-.25h-.61v4.74h.6A3.22,3.22,0,0,0,45.92,47,2.3,2.3,0,0,0,46.59,45.19Z" transform="translate(-34.72 -0.62)"/>
  <path class="cls-3" d="M52.45,43.93v-1h-2.7v1.88H52.1v.79H49.75v2.07h2.7V46.46h.78V48.4H48v-.78h.81V42.88H48v-.79h5.25v1.84Z" transform="translate(-34.72 -0.62)"/>
  <path class="cls-3" d="M55.27,42.88l1.62,4.29,1.56-4.29h-.73v-.79h2.41v.79h-.76l-2.08,5.59h-.88l-2.12-5.59h-.78v-.79H56v.79Z" transform="translate(-34.72 -0.62)"/>
  <path class="cls-3" d="M66.63,45.23a3.44,3.44,0,0,1-.42,1.71A2.93,2.93,0,0,1,65,48.1a3.5,3.5,0,0,1-1.7.41,3.23,3.23,0,0,1-1.68-.43,2.92,2.92,0,0,1-1.14-1.17,3.56,3.56,0,0,1-.41-1.7,3.31,3.31,0,0,1,.42-1.67,2.93,2.93,0,0,1,1.15-1.14A3.28,3.28,0,0,1,63.34,42a3.48,3.48,0,0,1,1.72.42,2.94,2.94,0,0,1,1.16,1.16A3.3,3.3,0,0,1,66.63,45.23Zm-3.26,2.44a2.1,2.1,0,0,0,1.16-.34,2.37,2.37,0,0,0,.79-.9,2.78,2.78,0,0,0,.28-1.2A2.49,2.49,0,0,0,65.3,44a2.22,2.22,0,0,0-.82-.87,2.1,2.1,0,0,0-1.17-.32,2,2,0,0,0-1.13.31,2.07,2.07,0,0,0-.77.86,2.73,2.73,0,0,0-.27,1.22,2.89,2.89,0,0,0,.27,1.27,2.06,2.06,0,0,0,.78.87A2.28,2.28,0,0,0,63.37,47.67Z" transform="translate(-34.72 -0.62)"/>
  <path class="cls-3" d="M72,42.88h-.9v-.79h2.59v.79h-.93v5.59h-1l-3-5.4v4.55h.9v.78H67v-.78h.9V42.88H67v-.79h2.15L72,47Z" transform="translate(-34.72 -0.62)"/>
  <path class="cls-4" d="M78,42.85l1.71,4.77h.7v.78H77.91v-.78h.83l-.49-1.44H76l-.49,1.44h.8v.78H73.76v-.78h.77l1.7-4.77h-.76v-.76h3.28v.76Zm-.86,0h0l-.89,2.59H78Z" transform="translate(-34.72 -0.62)"/>
  <path class="cls-4" d="M85.44,42.88h-.9v-.79h2.59v.79H86.2v5.59h-1l-3-5.4v4.55h.9v.78H80.52v-.78h.9V42.88h-.9v-.79h2.15L85.44,47Z" transform="translate(-34.72 -0.62)"/>
  <path class="cls-4" d="M93.46,45.15a3,3,0,0,1-1,2.44,4.47,4.47,0,0,1-2.91.81H87.21v-.78h.85V42.88h-.85v-.79h2.4a4.7,4.7,0,0,1,2.89.73A2.75,2.75,0,0,1,93.46,45.15Zm-1,0a2.67,2.67,0,0,0-.29-1.31,1.67,1.67,0,0,0-.89-.75,4.3,4.3,0,0,0-1.62-.25H89v4.74h.6A3.21,3.21,0,0,0,91.74,47,2.31,2.31,0,0,0,92.42,45.19Z" transform="translate(-34.72 -0.62)"/>
  <path class="cls-4" d="M98.28,43.93v-1H95.57v1.88h2.35v.79H95.57v2.07h2.71V46.46h.78V48.4H93.81v-.78h.81V42.88h-.81v-.79h5.25v1.84Z" transform="translate(-34.72 -0.62)"/>
  <path class="cls-4" d="M104.17,43.74a1.51,1.51,0,0,1-.34,1,1.73,1.73,0,0,1-1,.57L104,47.62h.77v.78h-1.41l-1.4-2.94h-.88v2.16h.8v.78H99.25v-.78h.85V42.88h-.85v-.79h2.62a3,3,0,0,1,1.76.4A1.44,1.44,0,0,1,104.17,43.74Zm-1,0a.77.77,0,0,0-.28-.65,1.54,1.54,0,0,0-.88-.2h-1v1.79H102a1.59,1.59,0,0,0,.91-.21A.85.85,0,0,0,103.19,43.73Z" transform="translate(-34.72 -0.62)"/>
  <path class="cls-4" d="M108.2,42.48v-.43H109V44h-.77v-.44a1.55,1.55,0,0,0-1.34-.74,1.29,1.29,0,0,0-.8.21.7.7,0,0,0-.28.61.68.68,0,0,0,.26.57,2.62,2.62,0,0,0,.81.34l.74.19a3,3,0,0,1,1.09.5,1.54,1.54,0,0,1,.49.66,2.35,2.35,0,0,1,.12.77,1.79,1.79,0,0,1-.54,1.37,2.05,2.05,0,0,1-1.44.5,2.29,2.29,0,0,1-1.56-.63v.52H105V46.1h.79v.56a1.68,1.68,0,0,0,1.47,1,1.18,1.18,0,0,0,.83-.27,1.06,1.06,0,0,0,.29-.78c0-.45-.32-.76-1-.94l-.79-.22a2.76,2.76,0,0,1-1.26-.66,1.5,1.5,0,0,1-.4-1.09,1.69,1.69,0,0,1,.49-1.3,1.94,1.94,0,0,1,1.36-.45A2.3,2.3,0,0,1,108.2,42.48Z" transform="translate(-34.72 -0.62)"/>
  <path class="cls-4" d="M116.32,45.23a3.44,3.44,0,0,1-.42,1.71,3,3,0,0,1-1.18,1.16,3.53,3.53,0,0,1-1.7.41,3.23,3.23,0,0,1-1.68-.43,2.92,2.92,0,0,1-1.14-1.17,3.56,3.56,0,0,1-.41-1.7,3.31,3.31,0,0,1,.42-1.67,2.93,2.93,0,0,1,1.15-1.14A3.28,3.28,0,0,1,113,42a3.48,3.48,0,0,1,1.72.42,3,3,0,0,1,1.16,1.16A3.4,3.4,0,0,1,116.32,45.23Zm-3.27,2.44a2.14,2.14,0,0,0,1.17-.34,2.26,2.26,0,0,0,.78-.9,2.64,2.64,0,0,0,.28-1.2A2.6,2.6,0,0,0,115,44a2.22,2.22,0,0,0-.82-.87,2.1,2.1,0,0,0-1.17-.32,2.07,2.07,0,0,0-1.14.31,2.12,2.12,0,0,0-.76.86,2.73,2.73,0,0,0-.27,1.22,2.89,2.89,0,0,0,.27,1.27,2.06,2.06,0,0,0,.78.87A2.27,2.27,0,0,0,113.05,47.67Z" transform="translate(-34.72 -0.62)"/>
  <path class="cls-4" d="M121.65,42.88h-.9v-.79h2.59v.79h-.93v5.59h-1l-3-5.4v4.55h.91v.78h-2.59v-.78h.9V42.88h-.9v-.79h2.16L121.65,47Z" transform="translate(-34.72 -0.62)"/>
</svg> -->


<svg id="Layer_2" width="180" height="70" data-name="Layer 2" xmlns="http://www.w3.org/2000/svg" xmlns:xlink="http://www.w3.org/1999/xlink" viewBox="0 0 608.62 252.04">
  <defs>
    <style>.cls-1{fill:url(#linear-gradient);}.cls-2{font-size:39.85px;font-family:Rockwell-Regular, Rockwell;letter-spacing:-0.03em;}.cls-3{letter-spacing:-0.08em;}.cls-4{letter-spacing:-0.03em;}
    </style>
    <linearGradient id="linear-gradient" x1="632.29" y1="442.02" x2="1240.9" y2="442.02" gradientUnits="userSpaceOnUse">
      <stop offset="0.01" stop-color="#ba0632"/>
      <stop offset="0.06" stop-color="#bf0831"/>
      <stop offset="0.12" stop-color="#ce0f2c"/>
      <stop offset="0.19" stop-color="#e71a25"/>
      <stop offset="0.2" stop-color="#ec1c24"/>
      <stop offset="0.28" stop-color="#f14f4b"/>
      <stop offset="0.32" stop-color="#f3645b"/>
      <stop offset="0.32" stop-color="#f1665b"/>
      <stop offset="0.35" stop-color="#cb8b67"/>
      <stop offset="0.37" stop-color="#acaa70"/>
      <stop offset="0.39" stop-color="#93c278"/>
      <stop offset="0.42" stop-color="#82d37d"/>
      <stop offset="0.45" stop-color="#77dd80"/>
      <stop offset="0.48" stop-color="#74e081"/>
      <stop offset="0.49" stop-color="#5bd674"/>
      <stop offset="0.5" stop-color="#45ce69"/>
      <stop offset="0.52" stop-color="#34c760"/>
      <stop offset="0.53" stop-color="#29c25a"/>
      <stop offset="0.56" stop-color="#22c056"/>
      <stop offset="0.63" stop-color="#20bf55"/>
      <stop offset="0.75" stop-color="#01baef"/>
      <stop offset="0.87" stop-color="#03bae7"/>
      <stop offset="1" stop-color="#006aef"/>
    </linearGradient>
  </defs>
  <path class="cls-1" d="M814.74,533.75c4.62-11,7-24.6,7-40.95V316H786.11v76.25H708.54c-46.95,0-76.25,28.63-76.25,87.9S661.59,568,708.54,568H832.65c2.38-11.5,6.88-23.62,15-34.29Zm-28.63-42.62c0,30-11,42.62-39.29,42.62h-35c-30.3,0-44-15.65-44-53.6s13.65-53.94,44-53.94h74.24Zm135.17-64.92h100.94c4-7.62,12.47-21.87,25.8-34H921c-41,0-57.27,19.65-57.27,51.27,0,27,12,51.27,60.6,51.27H965.9c17.64,0,25,5.67,25,19.65,0,13.65-6.66,19.31-23,19.31H862c-9.48,9-15.94,20.91-19.11,34.29h125c41.29,0,57.61-22,57.61-53.26,0-27.31-12.33-49.62-60.94-49.62H923.28c-19.64,0-25-6.65-25-19C898.31,432.87,905,426.21,921.28,426.21Zm258.37-34H1064.6c-12.24,7.75-22.65,19.51-29.94,34h144.65c19.32,0,27,10.66,27,24.3v13.33h-83.57c-43.28,0-59.27,18.64-59.27,50.6,0,33.3,17.32,53.6,58.93,53.6h82.24c29.64,0,36.29-10,36.29-35.29V450.18C1240.9,416.89,1223.59,392.25,1179.65,392.25Zm26.63,132.51c0,6.32-2.67,9-9.66,9h-73.91c-17.64,0-24.64-8.32-24.64-21.31s6.66-20.64,25.31-20.64h82.9Z" transform="translate(-632.29 -316)"/>
  <text class="cls-2" transform="translate(196 70.5)">
    DE
    <tspan class="cls-3" x="55.23" y="0">V</tspan>
    <tspan class="cls-4" x="84.37" y="0">ON ANDERSON</tspan>
  </text>
</svg>
