<svg id="Layer_2" width="180" height="70" data-name="Layer 2" xmlns="http://www.w3.org/2000/svg" xmlns:xlink="http://www.w3.org/1999/xlink" viewBox="0 0 608.62 252.04">
  <defs>
    <style>.cls-1{fill:url(#linear-gradient);}.cls-2{font-size:39.85px;font-family:Rockwell-Regular, Rockwell;letter-spacing:-0.03em;}.cls-3{letter-spacing:-0.08em;}.cls-4{letter-spacing:-0.03em;}
    </style>
    <linearGradient id="linear-gradient" x1="632.29" y1="442.02" x2="1240.9" y2="442.02" gradientUnits="userSpaceOnUse">
      <stop offset="0.01" stop-color="#ba0632"/>
      <stop offset="0.06" stop-color="#bf0831"/>
      <stop offset="0.12" stop-color="#ce0f2c"/>
      <stop offset="0.19" stop-color="#e71a25"/>
      <stop offset="0.2" stop-color="#ec1c24"/>
      <stop offset="0.28" stop-color="#f14f4b"/>
      <stop offset="0.32" stop-color="#f3645b"/>
      <stop offset="0.32" stop-color="#f1665b"/>
      <stop offset="0.35" stop-color="#cb8b67"/>
      <stop offset="0.37" stop-color="#acaa70"/>
      <stop offset="0.39" stop-color="#93c278"/>
      <stop offset="0.42" stop-color="#82d37d"/>
      <stop offset="0.45" stop-color="#77dd80"/>
      <stop offset="0.48" stop-color="#74e081"/>
      <stop offset="0.49" stop-color="#5bd674"/>
      <stop offset="0.5" stop-color="#45ce69"/>
      <stop offset="0.52" stop-color="#34c760"/>
      <stop offset="0.53" stop-color="#29c25a"/>
      <stop offset="0.56" stop-color="#22c056"/>
      <stop offset="0.63" stop-color="#20bf55"/>
      <stop offset="0.75" stop-color="#01baef"/>
      <stop offset="0.87" stop-color="#03bae7"/>
      <stop offset="1" stop-color="#006aef"/>
    </linearGradient>
  </defs>
  <path class="cls-1" d="M814.74,533.75c4.62-11,7-24.6,7-40.95V316H786.11v76.25H708.54c-46.95,0-76.25,28.63-76.25,87.9S661.59,568,708.54,568H832.65c2.38-11.5,6.88-23.62,15-34.29Zm-28.63-42.62c0,30-11,42.62-39.29,42.62h-35c-30.3,0-44-15.65-44-53.6s13.65-53.94,44-53.94h74.24Zm135.17-64.92h100.94c4-7.62,12.47-21.87,25.8-34H921c-41,0-57.27,19.65-57.27,51.27,0,27,12,51.27,60.6,51.27H965.9c17.64,0,25,5.67,25,19.65,0,13.65-6.66,19.31-23,19.31H862c-9.48,9-15.94,20.91-19.11,34.29h125c41.29,0,57.61-22,57.61-53.26,0-27.31-12.33-49.62-60.94-49.62H923.28c-19.64,0-25-6.65-25-19C898.31,432.87,905,426.21,921.28,426.21Zm258.37-34H1064.6c-12.24,7.75-22.65,19.51-29.94,34h144.65c19.32,0,27,10.66,27,24.3v13.33h-83.57c-43.28,0-59.27,18.64-59.27,50.6,0,33.3,17.32,53.6,58.93,53.6h82.24c29.64,0,36.29-10,36.29-35.29V450.18C1240.9,416.89,1223.59,392.25,1179.65,392.25Zm26.63,132.51c0,6.32-2.67,9-9.66,9h-73.91c-17.64,0-24.64-8.32-24.64-21.31s6.66-20.64,25.31-20.64h82.9Z" transform="translate(-632.29 -316)"/>
  <text class="cls-2" transform="translate(196 70.5)">
    DE
    <tspan class="cls-3" x="55.23" y="0">V</tspan>
    <tspan class="cls-4" x="84.37" y="0">ON ANDERSON</tspan>
  </text>
</svg>
