<svg id="Layer_2" width="180" height="70" data-name="Layer 2" xmlns="http://www.w3.org/2000/svg" xmlns:xlink="http://www.w3.org/1999/xlink" viewBox="0 0 608.61 252.04">
  <defs>
    <style>.cls-1{fill:url(#linear-gradient);}.cls-2{fill:url(#linear-gradient-2);}.cls-3{fill:url(#linear-gradient-3);}.cls-4{font-size:39.85px;fill:#666;font-family:Rockwell-Regular, Rockwell;letter-spacing:-0.03em;}.cls-5{letter-spacing:-0.08em;}.cls-6{letter-spacing:-0.03em;}
    </style>
    <linearGradient id="linear-gradient" x1="565.29" y1="460.02" x2="780.68" y2="460.02" gradientUnits="userSpaceOnUse"><stop offset="0.08" stop-color="#009ffd"/><stop offset="0.48" stop-color="#136abe"/><stop offset="1" stop-color="#2a2a72"/>
    </linearGradient>
    <linearGradient id="linear-gradient-2" x1="775.93" y1="498.15" x2="981.02" y2="498.15" gradientUnits="userSpaceOnUse">
      <stop offset="0" stop-color="#2a2a72"/>
      <stop offset="0.15" stop-color="#253883"/>
      <stop offset="0.45" stop-color="#185cae"/>
      <stop offset="0.87" stop-color="#0396f3"/>
      <stop offset="0.92" stop-color="#009ffd"/>
    </linearGradient>
    <linearGradient id="linear-gradient-3" x1="967.66" y1="498.14" x2="1173.9" y2="498.14" gradientUnits="userSpaceOnUse">
      <stop offset="0.08" stop-color="#009ffd"/>
      <stop offset="0.2" stop-color="#0299f6"/>
      <stop offset="0.38" stop-color="#0889e2"/>
      <stop offset="0.59" stop-color="#126ec3"/>
      <stop offset="0.83" stop-color="#1f4996"/>
      <stop offset="1" stop-color="#2a2a72"/>
    </linearGradient>
  </defs>
  <path class="cls-1" d="M747.74,551.75c4.62-11,7-24.6,7-40.95V334H719.11v76.25H641.54c-46.95,0-76.25,28.63-76.25,87.9S594.59,586,641.54,586H765.65c2.38-11.5,6.88-23.62,15-34.29Zm-28.63-42.62c0,30-11,42.62-39.29,42.62h-35c-30.3,0-44-15.65-44-53.6s13.65-53.94,44-53.94h74.24Z" transform="translate(-565.29 -334)"/>
  <path class="cls-2" d="M854.28,444.21H955.22c4-7.62,12.47-21.87,25.8-34H854c-41,0-57.27,19.65-57.27,51.27,0,27,12,51.27,60.6,51.27H898.9c17.64,0,25,5.67,25,19.65,0,13.65-6.66,19.31-23,19.31H795c-9.48,9-15.94,20.91-19.11,34.29h125c41.29,0,57.61-22,57.61-53.26,0-27.31-12.33-49.62-60.94-49.62H856.28c-19.64,0-25-6.65-25-19C831.31,450.87,838,444.21,854.28,444.21Z" transform="translate(-565.29 -334)"/>
  <path class="cls-3" d="M1112.65,410.25H997.6c-12.24,7.75-22.65,19.51-29.94,34h144.65c19.32,0,27,10.66,27,24.3v13.33h-83.57c-43.28,0-59.27,18.64-59.27,50.6,0,33.3,17.32,53.6,58.93,53.6h82.24c29.64,0,36.29-10,36.29-35.29V468.18C1173.9,434.89,1156.59,410.25,1112.65,410.25Zm26.63,132.51c0,6.32-2.67,9-9.66,9h-73.91c-17.64,0-24.64-8.32-24.64-21.31s6.66-20.64,25.31-20.64h82.9Z" transform="translate(-565.29 -334)"/>
  <text class="cls-4" transform="translate(196 70.5)">DE<tspan class="cls-5" x="55.23" y="0">V</tspan><tspan class="cls-6" x="84.37" y="0">ON ANDERSON</tspan></text>
</svg>
