<svg id="Layer_1" height="100" width="1440" data-name="Layer 1" xmlns="http://www.w3.org/2000/svg" xmlns:xlink="http://www.w3.org/1999/xlink" viewBox="0 0 1439.52 100.46">
	<defs>
		<style>
			.cls-1{fill:url(#linear-gradient);}
		</style>
		<linearGradient id="linear-gradient" x1="719.57" y1="100.46" x2="719.57" y2="0.46" gradientUnits="userSpaceOnUse">
			<stop offset="0" stop-color="#fff" />
			<stop offset="0.89" />
		</linearGradient>
	</defs>
	<polygon points="0.38 100 21.38 42 43.38 61 33.38 70.5 175.38 7 259.38 80.38 274.38 58 289.38 80.38 329.38 41 383.38 80.38 420.38 53.5 527.38 80.38 655.38 0 781.38 90.19 798.38 76 810.38 85 858.56 34.2 925.38 90.19 1053.38 38 1204.38 90.19 1264.38 67 1313.38 86 1439.52 35 1439.52 100 0.38 100" />
	<polygon class="cls-1" points="0 100.46 21 42.46 27 71.46 175 7.46 187 50.46 159 75.46 259 80.83 274 58.46 274 78.46 288.97 80.79 329 41.46 375 86.46 420 53.96 515 86.46 655 0.46 680 39.46 663 56.46 719.57 70.46 776 95.46 798 76.46 798 91.46 810 85.46 858.18 34.66 881 74.46 901 83.46 925 90.65 1053 38.46 1108 72.46 1108 88.46 1186 90.46 1204 90.65 1264 67.46 1289 86.46 1302 93.46 1313 86.46 1439.14 35.46 1439.14 100.46 0 100.46" />
</svg>
